<?xml version="1.0" standalone="no"?>
<!DOCTYPE svg PUBLIC "-//W3C//DTD SVG 20010904//EN"
 "http://www.w3.org/TR/2001/REC-SVG-20010904/DTD/svg10.dtd">
<svg version="1.0" xmlns="http://www.w3.org/2000/svg"
 width="113.000000pt" height="86.000000pt" viewBox="0 0 113.000000 86.000000"
 preserveAspectRatio="xMidYMid meet">

<g transform="translate(0.000000,86.000000) scale(0.100000,-0.100000)"
fill="#000000" stroke="none">
<path d="M516 815 c4 -27 8 -52 10 -54 9 -10 3 75 -6 89 -7 10 -8 -1 -4 -35z"/>
<path d="M607 840 c-3 -11 -1 -20 4 -20 5 0 9 9 9 20 0 11 -2 20 -4 20 -2 0
-6 -9 -9 -20z"/>
<path d="M420 823 c0 -4 5 -15 10 -23 8 -13 10 -13 10 2 0 9 -4 20 -10 23 -5
3 -10 3 -10 -2z"/>
<path d="M696 815 c-9 -26 -7 -32 5 -12 6 10 9 21 6 23 -2 3 -7 -2 -11 -11z"/>
<path d="M602 785 c0 -16 2 -22 5 -12 2 9 2 23 0 30 -3 6 -5 -1 -5 -18z"/>
<path d="M563 755 c0 -22 2 -30 4 -17 2 12 2 30 0 40 -3 9 -5 -1 -4 -23z"/>
<path d="M346 765 c4 -8 11 -15 16 -15 6 0 5 6 -2 15 -7 8 -14 15 -16 15 -2 0
-1 -7 2 -15z"/>
<path d="M446 767 c3 -10 9 -15 12 -12 3 3 0 11 -7 18 -10 9 -11 8 -5 -6z"/>
<path d="M637 773 c-2 -4 -7 -21 -10 -38 -6 -30 -6 -30 9 4 8 18 13 35 11 38
-3 2 -7 1 -10 -4z"/>
<path d="M677 773 c-4 -3 -7 -13 -7 -22 1 -13 3 -13 11 2 11 19 8 33 -4 20z"/>
<path d="M770 765 c-7 -9 -8 -15 -2 -15 5 0 12 7 16 15 3 8 4 15 2 15 -2 0 -9
-7 -16 -15z"/>
<path d="M490 754 c0 -10 5 -26 10 -34 8 -11 9 -7 4 15 -8 37 -14 45 -14 19z"/>
<path d="M425 723 c8 -18 18 -33 20 -33 10 0 4 16 -16 40 l-20 25 16 -32z"/>
<path d="M696 724 c-10 -14 -16 -28 -13 -30 2 -3 12 7 21 22 10 14 16 28 13
30 -2 3 -12 -7 -21 -22z"/>
<path d="M376 725 c4 -8 11 -15 16 -15 6 0 5 6 -2 15 -7 8 -14 15 -16 15 -2 0
-1 -7 2 -15z"/>
<path d="M532 715 c0 -16 2 -22 5 -12 2 9 2 23 0 30 -3 6 -5 -1 -5 -18z"/>
<path d="M592 710 c0 -19 2 -27 5 -17 2 9 2 25 0 35 -3 9 -5 1 -5 -18z"/>
<path d="M740 725 c-8 -9 -8 -15 -2 -15 12 0 26 19 19 26 -2 2 -10 -2 -17 -11z"/>
<path d="M461 725 c0 -18 28 -61 29 -44 0 8 -7 24 -15 35 -8 10 -14 15 -14 9z"/>
<path d="M650 706 c-15 -39 -12 -46 6 -13 9 16 13 31 10 34 -3 3 -10 -6 -16
-21z"/>
<path d="M270 711 c0 -5 7 -12 16 -15 14 -5 15 -4 4 9 -14 17 -20 19 -20 6z"/>
<path d="M820 689 c-19 -16 -30 -29 -25 -29 12 1 69 50 64 55 -2 1 -20 -10
-39 -26z"/>
<path d="M560 660 c-2 -45 -4 -49 -9 -25 l-7 30 -7 -35 -8 -35 -14 25 c-9 15
-14 19 -15 10 0 -8 -9 0 -20 18 -11 17 -22 32 -26 32 -3 0 3 -16 15 -36 26
-43 26 -51 4 -33 -16 12 -17 12 -5 -2 8 -11 27 -16 60 -16 l49 1 -4 51 c-6 72
-11 78 -13 15z"/>
<path d="M370 675 c13 -14 26 -23 28 -20 7 7 -29 45 -41 45 -6 0 0 -11 13 -25z"/>
<path d="M512 680 c0 -14 3 -34 8 -45 l9 -20 -1 20 c0 11 -4 31 -8 45 l-8 25
0 -25z"/>
<path d="M617 693 c-7 -12 -20 -79 -14 -73 6 6 27 80 22 80 -2 0 -6 -3 -8 -7z"/>
<path d="M749 673 l-24 -28 28 24 c25 23 32 31 24 31 -2 0 -14 -12 -28 -27z"/>
<path d="M419 672 c6 -12 16 -24 22 -28 8 -4 8 -1 0 14 -6 12 -16 24 -22 28
-8 4 -8 1 0 -14z"/>
<path d="M695 663 l-17 -28 23 22 c12 12 20 25 17 28 -3 3 -13 -7 -23 -22z"/>
<path d="M310 676 c0 -2 7 -7 16 -10 8 -3 12 -2 9 4 -6 10 -25 14 -25 6z"/>
<path d="M655 649 c-12 -21 -19 -28 -25 -20 -5 10 -9 9 -13 -3 -10 -26 -27
-18 -28 12 0 15 -3 21 -6 14 -3 -7 -2 -24 1 -38 5 -20 12 -24 37 -22 16 1 36
9 42 18 11 13 10 13 -5 1 -24 -18 -23 -5 3 31 12 16 19 32 16 35 -3 2 -13 -10
-22 -28z"/>
<path d="M360 643 c0 -10 40 -36 46 -30 3 2 -7 12 -21 21 -14 9 -25 13 -25 9z"/>
<path d="M741 629 c-13 -10 -19 -19 -15 -19 13 1 48 29 43 34 -2 2 -15 -4 -28
-15z"/>
<path d="M845 629 c4 -11 -1 -22 -12 -28 -14 -8 -10 -9 17 -4 45 8 67 28 42
38 -34 15 -53 13 -47 -6z"/>
<path d="M329 621 c13 -12 28 -21 35 -21 12 0 -5 14 -39 31 -16 8 -15 6 4 -10z"/>
<path d="M429 616 c14 -14 27 -26 29 -26 10 0 -26 44 -39 48 -8 3 -3 -7 10
-22z"/>
<path d="M684 608 l-29 -33 33 29 c30 28 37 36 29 36 -2 0 -16 -15 -33 -32z"/>
<path d="M775 615 c-22 -14 -35 -25 -30 -25 6 0 28 11 50 25 22 13 36 24 30
24 -5 0 -28 -11 -50 -24z"/>
<path d="M230 620 c20 -13 33 -13 25 0 -3 6 -14 10 -23 10 -15 0 -15 -2 -2
-10z"/>
<path d="M280 600 c20 -13 33 -13 25 0 -3 6 -14 10 -23 10 -15 0 -15 -2 -2
-10z"/>
<path d="M362 563 c108 -2 288 -2 400 0 112 1 23 2 -197 2 -220 0 -311 -1
-203 -2z"/>
<path d="M14 507 c-9 -23 -10 -131 -2 -155 6 -19 14 -23 40 -20 29 3 33 7 36
36 2 18 -1 32 -7 32 -6 0 -11 -8 -11 -19 0 -10 -7 -24 -15 -31 -21 -17 -27 3
-23 81 2 49 7 64 18 64 8 0 16 -10 18 -22 2 -13 8 -23 13 -23 13 0 11 44 -3
58 -16 16 -57 15 -64 -1z"/>
<path d="M121 506 c-8 -9 -11 -43 -9 -93 l3 -78 33 -3 c27 -3 34 1 42 23 13
34 13 106 0 139 -11 29 -50 36 -69 12z m47 -76 c4 -73 -1 -92 -23 -84 -11 5
-15 22 -15 73 0 37 3 71 7 75 17 17 28 -6 31 -64z"/>
<path d="M217 513 c-4 -3 -7 -46 -7 -95 l0 -88 40 0 c22 0 40 5 40 10 0 6 -11
10 -25 10 -25 0 -25 1 -25 85 0 78 -5 96 -23 78z"/>
<path d="M310 425 c0 -57 4 -95 10 -95 6 0 10 38 10 95 0 57 -4 95 -10 95 -6
0 -10 -38 -10 -95z"/>
<path d="M350 426 l0 -96 33 0 c18 0 38 5 45 12 15 15 16 60 1 75 -7 7 -8 17
-1 29 5 11 6 30 3 44 -6 20 -14 26 -44 28 l-37 3 0 -95z m58 45 c4 -23 -15
-44 -30 -35 -4 3 -8 19 -8 35 0 24 4 30 18 27 9 -2 19 -14 20 -27z m0 -89 c3
-27 0 -32 -17 -32 -17 0 -21 6 -21 36 0 28 3 35 18 32 11 -2 18 -14 20 -36z"/>
<path d="M457 513 c-4 -3 -7 -46 -7 -95 0 -72 3 -88 15 -88 11 0 15 11 15 40
0 22 4 40 8 40 16 0 32 -25 32 -51 0 -15 4 -30 10 -34 13 -8 11 166 -2 183
-11 13 -60 17 -71 5z m58 -48 c0 -20 -6 -31 -17 -33 -15 -3 -18 4 -18 33 0 29
3 36 18 33 11 -2 17 -13 17 -33z"/>
<path d="M560 425 c0 -57 4 -95 10 -95 6 0 10 38 10 95 0 57 -4 95 -10 95 -6
0 -10 -38 -10 -95z"/>
<path d="M650 501 c-15 -29 -13 -35 25 -81 37 -44 40 -63 13 -68 -9 -2 -18 6
-21 20 -5 17 -9 20 -18 11 -8 -8 -8 -16 1 -33 9 -16 19 -20 43 -18 27 3 33 8
35 32 3 21 -5 37 -28 61 -32 33 -37 64 -12 73 7 2 16 -5 19 -17 7 -26 23 -28
23 -3 0 41 -60 59 -80 23z"/>
<path d="M750 425 c0 -57 4 -95 10 -95 6 0 10 13 10 29 0 23 7 33 28 43 21 10
28 21 30 51 4 47 -11 67 -49 67 l-29 0 0 -95z m55 35 c0 -25 -5 -36 -17 -38
-15 -3 -18 4 -18 38 0 34 3 41 18 38 12 -2 17 -13 17 -38z"/>
<path d="M850 425 c0 -57 4 -95 10 -95 6 0 10 38 10 95 0 57 -4 95 -10 95 -6
0 -10 -38 -10 -95z"/>
<path d="M890 426 c0 -53 4 -96 9 -96 6 0 11 17 13 38 4 49 31 51 38 3 7 -47
30 -53 30 -9 0 19 -5 39 -11 45 -8 8 -7 16 2 31 10 15 10 29 3 49 -8 23 -16
29 -47 31 l-37 3 0 -95z m60 59 c16 -19 3 -55 -21 -55 -14 0 -19 7 -19 28 0
43 17 54 40 27z"/>
<path d="M1000 425 c0 -57 4 -95 10 -95 6 0 10 38 10 95 0 57 -4 95 -10 95 -6
0 -10 -38 -10 -95z"/>
<path d="M1036 511 c-3 -5 3 -11 14 -14 18 -5 20 -14 20 -86 0 -47 4 -81 10
-81 6 0 10 34 10 81 0 72 2 81 20 86 11 3 20 9 20 14 0 12 -87 12 -94 0z"/>
<path d="M362 273 c108 -2 288 -2 400 0 112 1 23 2 -197 2 -220 0 -311 -1
-203 -2z"/>
<path d="M253 245 c-18 -8 -33 -16 -33 -19 0 -8 59 15 66 25 7 11 6 11 -33 -6z"/>
<path d="M680 253 c0 -5 9 -18 20 -28 11 -10 20 -14 20 -8 0 5 -9 18 -20 28
-11 10 -20 14 -20 8z"/>
<path d="M845 250 c3 -5 8 -10 11 -10 2 0 4 5 4 10 0 6 -5 10 -11 10 -5 0 -7
-4 -4 -10z"/>
<path d="M324 235 c-10 -8 -14 -14 -9 -14 6 0 19 6 29 14 11 8 15 15 10 15 -6
0 -19 -7 -30 -15z"/>
<path d="M374 229 c-19 -22 -19 -22 3 -10 24 12 39 31 25 31 -5 0 -17 -10 -28
-21z"/>
<path d="M420 235 c-20 -24 -6 -28 15 -5 10 11 13 20 8 20 -6 0 -16 -7 -23
-15z"/>
<path d="M460 239 c0 -6 5 -7 10 -4 15 9 12 -2 -6 -30 -9 -14 -12 -25 -7 -25
5 0 16 15 25 33 15 31 15 33 -3 34 -11 1 -19 -3 -19 -8z"/>
<path d="M538 222 l6 -27 7 25 c5 20 8 14 10 -25 l2 -50 7 50 c4 28 8 39 9 25
l3 -25 7 25 c7 23 8 21 15 -17 4 -24 12 -43 17 -43 6 0 7 5 4 10 -4 6 -3 24 0
41 l7 31 19 -31 c20 -34 36 -43 19 -12 -5 11 -8 26 -5 33 4 10 -11 14 -63 15
l-69 3 5 -28z m79 -4 c-3 -8 -6 -5 -6 6 -1 11 2 17 5 13 3 -3 4 -12 1 -19z"/>
<path d="M725 240 c3 -5 16 -15 28 -21 22 -12 22 -12 3 10 -19 21 -43 30 -31
11z"/>
<path d="M786 235 c10 -8 24 -14 29 -14 6 0 1 6 -9 14 -11 8 -24 15 -30 15 -5
0 -1 -7 10 -15z"/>
<path d="M870 246 c0 -3 9 -10 20 -16 11 -6 20 -8 20 -6 0 3 -9 10 -20 16 -11
6 -20 8 -20 6z"/>
<path d="M513 195 c-6 -19 -8 -35 -3 -35 8 0 23 60 17 67 -2 1 -8 -13 -14 -32z"/>
<path d="M370 185 c-13 -14 -19 -25 -13 -25 12 0 48 38 41 45 -2 3 -15 -6 -28
-20z"/>
<path d="M420 189 c-16 -30 -8 -31 13 -3 10 13 13 24 8 24 -6 0 -15 -9 -21
-21z"/>
<path d="M691 205 c0 -13 28 -50 33 -44 3 2 -4 15 -14 29 -11 14 -20 21 -19
15z"/>
<path d="M730 203 c0 -12 38 -48 45 -41 3 2 -6 15 -20 28 -14 13 -25 19 -25
13z"/>
<path d="M300 170 c-46 -39 -34 -39 15 0 21 17 34 30 29 30 -5 0 -25 -14 -44
-30z"/>
<path d="M794 192 c8 -13 66 -56 66 -49 0 3 -17 17 -37 33 -20 15 -33 23 -29
16z"/>
<path d="M472 158 c-10 -30 -10 -31 3 -14 13 17 21 46 12 46 -1 0 -8 -15 -15
-32z"/>
<path d="M640 177 c0 -7 7 -22 15 -33 13 -17 14 -16 4 14 -11 33 -19 41 -19
19z"/>
<path d="M426 140 c-9 -17 -13 -30 -8 -30 9 0 35 50 29 56 -2 2 -11 -10 -21
-26z"/>
<path d="M532 140 c0 -19 2 -27 5 -17 2 9 2 25 0 35 -3 9 -5 1 -5 -18z"/>
<path d="M592 140 c0 -19 2 -27 5 -17 2 9 2 25 0 35 -3 9 -5 1 -5 -18z"/>
<path d="M680 161 c0 -5 9 -19 20 -32 l21 -24 -16 33 c-15 31 -25 41 -25 23z"/>
<path d="M366 116 c-36 -48 -33 -57 4 -11 17 21 30 39 30 41 0 10 -10 1 -34
-30z"/>
<path d="M500 149 c0 -2 -4 -19 -9 -37 -5 -17 -6 -32 -2 -32 10 0 24 61 16 68
-3 3 -5 3 -5 1z"/>
<path d="M626 125 c4 -16 11 -34 16 -40 7 -7 8 -1 3 15 -12 40 -26 59 -19 25z"/>
<path d="M730 146 c0 -2 7 -9 15 -16 13 -11 14 -10 9 4 -5 14 -24 23 -24 12z"/>
<path d="M563 105 c0 -22 2 -30 4 -17 2 12 2 30 0 40 -3 9 -5 -1 -4 -23z"/>
<path d="M450 108 c0 -3 -7 -22 -15 -42 -8 -20 -13 -36 -10 -36 8 0 36 73 30
78 -3 3 -5 3 -5 0z"/>
<path d="M671 103 c1 -16 38 -88 38 -77 1 14 -27 84 -34 84 -3 0 -5 -3 -4 -7z"/>
<path d="M772 90 c7 -10 14 -18 15 -16 6 6 -9 36 -18 36 -5 0 -4 -9 3 -20z"/>
<path d="M522 70 c0 -14 2 -19 5 -12 2 6 2 18 0 25 -3 6 -5 1 -5 -13z"/>
<path d="M602 70 c0 -14 2 -19 5 -12 2 6 2 18 0 25 -3 6 -5 1 -5 -13z"/>
<path d="M517 33 c-4 -3 -7 -13 -7 -22 1 -13 3 -13 11 2 11 19 8 33 -4 20z"/>
<path d="M607 20 c3 -11 7 -20 9 -20 2 0 4 9 4 20 0 11 -4 20 -9 20 -5 0 -7
-9 -4 -20z"/>
</g>
</svg>
