<?xml version="1.0" standalone="no"?>
<!DOCTYPE svg PUBLIC "-//W3C//DTD SVG 20010904//EN"
 "http://www.w3.org/TR/2001/REC-SVG-20010904/DTD/svg10.dtd">
<svg version="1.0" xmlns="http://www.w3.org/2000/svg"
 width="100.000000pt" height="100.000000pt" viewBox="0 0 100.000000 100.000000"
 preserveAspectRatio="xMidYMid meet">

<g transform="translate(0.000000,100.000000) scale(0.100000,-0.100000)"
fill="#000000" stroke="none">
<path d="M0 500 l0 -500 500 0 500 0 0 500 0 500 -500 0 -500 0 0 -500z m254
257 c24 -17 32 -102 14 -137 -8 -15 -24 -26 -41 -28 l-27 -3 0 -110 c0 -102
-1 -109 -20 -109 -19 0 -20 7 -20 200 l0 200 38 0 c21 0 46 -6 56 -13z m146
-7 c18 -18 20 -33 20 -145 0 -112 -2 -127 -20 -145 -11 -11 -29 -20 -40 -20
-11 0 -29 9 -40 20 -18 18 -20 33 -20 145 0 112 2 127 20 145 11 11 29 20 40
20 11 0 29 -9 40 -20z m142 3 c13 -12 18 -30 18 -72 0 -66 -7 -79 -46 -90
l-29 -7 -1 -105 c-2 -98 -3 -104 -23 -107 -21 -3 -21 -1 -21 191 0 106 3 197
7 200 13 13 77 7 95 -10z m88 -128 c7 -184 23 -184 30 0 5 132 6 140 25 140
19 0 20 -8 23 -130 2 -144 -6 -173 -51 -189 -23 -8 -31 -6 -50 12 -20 21 -22
34 -25 153 -4 143 -1 162 25 157 16 -3 19 -20 23 -143z m200 125 c14 -14 20
-33 20 -68 0 -57 -21 -92 -56 -92 -24 0 -24 0 -24 -110 0 -103 -1 -110 -20
-110 -19 0 -20 7 -20 200 l0 200 40 0 c27 0 47 -7 60 -20z m-590 -440 c0 -5
-11 -10 -25 -10 -14 0 -25 -4 -25 -9 0 -5 8 -7 18 -4 27 7 48 -22 32 -43 -15
-18 -71 -15 -78 3 -2 9 6 11 30 6 19 -3 30 -2 25 3 -9 9 -13 10 -42 13 -15 1
-21 32 -8 44 10 11 73 8 73 -3z m143 -5 c-2 -5 -8 -10 -15 -10 -7 0 -12 -13
-13 -30 0 -20 -5 -30 -15 -30 -10 0 -15 10 -15 30 -1 17 -6 31 -13 31 -22 2
-23 4 -17 15 9 13 91 8 88 -6z m145 3 c7 -7 12 -21 12 -33 0 -38 -39 -56 -84
-39 -16 6 -23 64 -9 77 11 12 68 8 81 -5z m158 -35 c1 -46 -16 -58 -36 -25
-10 16 -10 16 -20 0 -19 -31 -30 -20 -30 28 l0 45 43 -3 42 -3 1 -42z m96 28
c11 -18 12 -18 29 3 9 11 20 18 24 15 7 -7 -33 -89 -44 -89 -6 1 -41 71 -41
83 0 14 20 6 32 -12z"/>
<path d="M200 679 c0 -43 3 -50 18 -47 30 6 28 98 -3 98 -11 0 -15 -13 -15
-51z"/>
<path d="M347 723 c-9 -8 -9 -228 0 -236 3 -4 12 -2 20 4 9 8 13 40 13 109 0
117 -9 148 -33 123z"/>
<path d="M480 681 c0 -45 3 -51 21 -51 18 0 20 5 17 47 -2 36 -7 49 -20 51
-15 3 -18 -4 -18 -47z"/>
<path d="M770 679 c0 -43 3 -50 18 -47 30 6 28 98 -3 98 -11 0 -15 -13 -15
-51z"/>
<path d="M470 275 c0 -20 4 -26 18 -23 9 2 17 12 17 23 0 11 -8 21 -17 23 -14
3 -18 -3 -18 -23z"/>
<path d="M630 290 c0 -5 7 -10 15 -10 8 0 15 5 15 10 0 6 -7 10 -15 10 -8 0
-15 -4 -15 -10z"/>
</g>
</svg>
