<?xml version="1.0" standalone="no"?>
<!DOCTYPE svg PUBLIC "-//W3C//DTD SVG 20010904//EN"
 "http://www.w3.org/TR/2001/REC-SVG-20010904/DTD/svg10.dtd">
<svg version="1.0" xmlns="http://www.w3.org/2000/svg"
 width="2480.000000pt" height="2480.000000pt" viewBox="0 0 2480.000000 2480.000000"
 preserveAspectRatio="xMidYMid meet">
<metadata>
Created by potrace 1.14, written by Peter Selinger 2001-2017
</metadata>
<g transform="translate(0.000000,2480.000000) scale(0.100000,-0.100000)"
fill="#000000" stroke="none">
<path d="M11900 17400 c-221 -12 -453 -29 -530 -40 -41 -5 -145 -16 -230 -25
-85 -8 -202 -22 -260 -29 -232 -32 -327 -46 -375 -56 -27 -5 -99 -19 -160 -29
-60 -11 -123 -22 -140 -26 -153 -31 -230 -47 -285 -59 -36 -9 -105 -24 -155
-35 -169 -38 -412 -103 -695 -186 -313 -92 -897 -299 -1040 -369 l-25 -12 -3
-299 c-1 -164 1 -302 6 -307 5 -5 31 1 58 13 181 81 633 243 994 357 165 52
625 177 725 196 11 2 52 12 90 21 116 27 607 125 633 125 1 0 -18 -26 -44 -57
-233 -293 -451 -639 -643 -1023 -130 -261 -178 -370 -276 -635 -102 -275 -200
-596 -255 -830 -6 -27 -18 -79 -26 -115 -14 -60 -33 -159 -70 -365 -25 -135
-53 -379 -74 -630 -54 -662 6 -1414 164 -2035 19 -74 41 -157 49 -185 8 -27
24 -81 35 -120 39 -131 137 -402 182 -500 5 -11 21 -48 35 -83 58 -142 245
-510 373 -735 38 -66 136 -219 210 -327 40 -57 72 -110 72 -117 0 -10 46 -13
210 -13 l210 0 0 34 c0 50 -12 76 -68 143 -41 49 -61 64 -111 83 -98 36 -228
128 -322 228 -118 125 -174 226 -221 397 -27 97 -34 289 -15 379 l15 69 -48
126 c-51 136 -135 385 -156 466 -7 28 -27 106 -43 175 -17 69 -36 141 -41 160
-30 113 -75 392 -112 705 -16 134 -16 944 0 1080 38 319 72 533 118 725 46
194 115 452 133 495 5 11 28 76 51 145 88 259 265 650 403 890 60 105 215 353
249 400 33 45 203 273 223 299 66 88 284 327 406 446 165 161 420 380 511 439
40 26 252 35 818 36 490 0 849 -11 972 -31 36 -6 112 -11 167 -12 97 -1 102 0
118 24 40 57 126 137 191 176 218 130 466 119 677 -32 99 -70 175 -176 215
-298 15 -47 24 -51 170 -77 63 -11 139 -25 168 -31 30 -6 56 -8 59 -5 11 10
12 55 2 62 -5 3 -7 9 -4 14 3 5 8 98 10 207 2 109 7 214 10 234 10 56 -13 73
-135 98 -58 13 -136 29 -175 38 -160 34 -206 43 -325 63 -69 12 -143 25 -165
31 -22 5 -92 16 -155 25 -63 9 -158 22 -210 29 -52 8 -162 21 -245 29 -82 9
-190 20 -240 26 -94 11 -279 24 -550 40 -179 10 -913 10 -1105 0z"/>
<path d="M15859 16834 c-10 -12 -13 -111 -15 -457 -6 -1434 -24 -4746 -30
-5517 l-7 -906 23 -49 c77 -167 79 -462 3 -614 -28 -55 -28 -59 -28 -236 l0
-180 265 0 265 0 9 45 c4 25 10 100 13 167 l4 123 -36 64 c-45 80 -66 185 -66
327 0 137 20 231 70 327 l40 77 11 2285 c6 1257 11 2530 11 2830 l0 545 90
-270 c50 -148 101 -308 115 -355 134 -455 211 -742 298 -1110 101 -432 209
-1006 267 -1415 11 -77 26 -187 34 -245 14 -98 34 -271 70 -615 14 -133 32
-353 55 -690 33 -486 46 -1532 23 -1896 -4 -74 -6 -149 -3 -165 l5 -29 233 -3
c230 -2 232 -2 232 19 0 11 67 157 149 322 82 166 190 399 241 517 50 118 95
224 100 235 42 95 166 433 232 630 47 142 62 193 124 403 86 297 178 687 233
987 125 694 171 1207 171 1920 0 517 -19 841 -76 1300 -41 323 -44 337 -79
354 -16 9 -46 25 -65 37 -19 12 -46 25 -60 29 -14 4 -51 20 -83 36 -47 23 -59
26 -63 14 -5 -12 3 -95 31 -303 3 -23 22 -52 63 -97 59 -62 111 -153 131 -230
18 -66 14 -214 -8 -283 -28 -88 -52 -130 -114 -199 l-55 -61 -6 -149 c-20
-513 -42 -765 -102 -1203 -30 -220 -110 -652 -154 -840 -5 -19 -16 -64 -24
-100 -14 -58 -47 -186 -105 -405 -64 -240 -252 -802 -312 -932 -10 -24 -19
-45 -19 -49 0 -6 -42 -114 -70 -179 -9 -22 -39 -91 -66 -154 l-49 -115 -12
130 c-6 71 -17 192 -23 269 -12 152 -32 350 -55 540 -8 66 -17 147 -20 180 -3
33 -10 87 -15 120 -9 57 -25 168 -56 390 -21 154 -88 554 -119 715 -33 172
-106 530 -120 590 -8 36 -21 97 -29 135 -8 39 -33 144 -55 235 -22 91 -44 183
-49 205 -45 185 -134 518 -217 800 -114 394 -338 1050 -485 1425 -22 58 -54
140 -70 182 -16 43 -36 88 -44 100 -8 13 -17 34 -21 48 -3 14 -36 86 -72 160
-80 164 -66 154 -355 234 -70 20 -82 20 -99 0z m1981 -6976 c58 -31 83 -76 77
-146 -4 -63 -28 -100 -81 -126 -76 -38 -163 -13 -203 59 -38 67 -27 140 29
192 50 47 112 54 178 21z"/>
<path d="M6645 15872 c-49 -32 -139 -86 -200 -121 -120 -69 -114 -65 -330
-206 -1051 -684 -2034 -1606 -2711 -2540 -43 -60 -89 -123 -101 -140 -12 -16
-91 -133 -176 -260 -336 -499 -601 -983 -852 -1550 -194 -442 -404 -1063 -514
-1527 -62 -261 -77 -332 -100 -468 -6 -36 -15 -90 -20 -120 -5 -30 -6 -59 -2
-63 4 -4 72 -6 152 -5 l144 3 7 55 c13 115 30 216 40 255 7 24 12 136 13 275
1 220 3 241 28 338 59 225 145 385 309 572 90 104 88 100 179 310 159 364 402
820 635 1192 312 498 757 1076 1138 1478 149 157 488 492 493 487 2 -3 0 -245
-6 -539 -13 -652 -19 -1045 -32 -2048 -5 -426 -16 -1133 -23 -1570 -8 -437
-12 -798 -9 -802 2 -5 125 -8 274 -8 l269 0 0 288 c1 158 5 496 10 752 5 256
17 965 26 1575 9 611 17 1128 19 1150 1 22 5 391 9 820 4 429 9 800 12 825 2
28 11 51 23 60 244 197 545 417 827 603 104 70 200 136 212 148 13 11 48 33
80 49 31 15 77 43 102 62 25 18 77 49 115 69 l70 37 5 299 c5 272 2 323 -19
323 -3 0 -46 -26 -96 -58z"/>
<path d="M12400 14336 c-299 -35 -593 -122 -865 -256 -283 -139 -484 -281
-701 -496 -264 -262 -453 -537 -592 -865 -95 -222 -141 -381 -189 -648 -25
-135 -27 -168 -27 -441 -1 -242 2 -315 17 -405 46 -273 95 -452 182 -667 214
-523 604 -980 1090 -1278 158 -97 370 -198 522 -248 185 -62 445 -116 642
-133 235 -21 641 6 796 52 39 12 104 30 145 40 228 54 624 250 850 420 142
107 330 281 431 399 357 419 572 899 655 1465 24 164 24 533 1 695 -93 634
-355 1170 -776 1590 -138 137 -171 167 -276 246 -369 279 -783 454 -1225 520
-139 20 -539 26 -680 10z m705 -409 c316 -61 616 -185 870 -358 538 -366 901
-946 995 -1591 40 -276 37 -487 -11 -783 -49 -304 -188 -640 -376 -913 -222
-323 -497 -566 -853 -754 -209 -111 -559 -215 -805 -239 -161 -16 -484 -5
-610 21 -397 81 -678 200 -955 404 -316 232 -532 486 -705 831 -172 340 -250
639 -261 995 -10 301 24 536 116 818 76 234 216 507 341 666 125 160 235 279
347 376 309 268 690 452 1087 525 180 33 181 33 450 30 209 -2 257 -6 370 -28z"/>
<path d="M7145 13723 c-131 -29 -236 -72 -281 -114 -19 -18 -20 -22 -7 -91 18
-96 61 -349 80 -468 25 -158 18 -150 137 -151 177 -2 371 3 377 9 3 4 16 63
28 132 13 69 27 136 31 150 5 14 12 45 15 70 4 25 13 70 21 100 7 30 16 79 19
109 2 30 10 70 16 88 6 19 9 39 6 46 -2 7 -38 29 -78 49 -108 55 -284 89 -364
71z"/>
<path d="M6962 12708 c-9 -9 -12 -71 -12 -223 l0 -211 24 -22 c37 -31 56 -110
66 -269 12 -191 -3 -286 -61 -388 l-28 -51 -6 -409 c-9 -707 -13 -2241 -6
-2254 5 -8 74 -11 257 -9 l249 3 7 45 c3 25 7 560 7 1190 1 630 4 1211 7 1291
7 144 7 147 -19 195 -39 73 -46 97 -57 197 -13 111 2 330 25 397 9 25 25 52
35 60 17 14 19 35 22 240 l3 225 -250 3 c-187 2 -254 -1 -263 -10z"/>
<path d="M20665 12520 c-205 -37 -355 -87 -525 -177 -334 -176 -591 -430 -764
-757 -14 -27 -26 -55 -26 -62 0 -8 -4 -14 -9 -14 -12 0 -96 -228 -119 -325
-48 -194 -55 -255 -55 -460 0 -216 10 -296 64 -496 70 -261 203 -503 404 -733
240 -273 581 -467 995 -568 76 -18 541 -18 625 0 288 64 543 179 755 341 387
296 632 720 704 1216 88 607 -170 1264 -649 1655 -131 106 -329 227 -440 268
-16 6 -55 20 -85 31 -81 31 -181 57 -310 80 -149 27 -416 28 -565 1z m502
-356 c174 -25 422 -121 563 -217 383 -261 619 -674 646 -1132 8 -145 -8 -297
-51 -469 -27 -112 -47 -166 -100 -270 -327 -651 -1021 -949 -1720 -737 -89 27
-238 99 -329 158 -352 232 -590 605 -647 1013 -14 108 -14 330 1 439 26 190
120 434 233 601 217 323 595 563 968 614 63 9 128 18 144 20 45 6 177 -3 292
-20z"/>
<path d="M1383 8543 c-22 -4 -23 -8 -23 -118 0 -108 1 -113 23 -119 29 -8
21385 -8 21414 0 22 6 23 11 23 119 l0 113 -31 6 c-35 7 -21371 6 -21406 -1z"/>
<path d="M1378 8013 c-17 -4 -18 -55 -18 -882 l0 -878 31 -7 c17 -3 328 -6
691 -6 l660 0 97 64 c456 300 1054 538 1841 736 1574 394 3622 493 5455 264
1406 -175 2570 -530 3286 -1000 l97 -64 4620 0 c2541 0 4634 3 4651 6 l31 6 0
878 0 878 -22 6 c-26 7 -21394 6 -21420 -1z m16912 -398 c209 -298 637 -908
733 -1043 l86 -123 -111 3 -111 3 -121 172 -121 173 -363 0 c-286 0 -363 3
-360 13 7 20 98 84 138 96 23 7 124 11 264 11 124 0 226 2 226 6 0 5 -60 91
-288 415 l-113 160 -18 -23 c-10 -13 -99 -140 -199 -283 -100 -143 -257 -368
-350 -500 l-169 -240 -106 -3 c-59 -1 -107 1 -107 5 0 4 42 67 93 138 51 72
212 299 357 505 406 578 502 712 504 708 2 -2 63 -88 136 -193z m2034 167
c167 -47 282 -125 333 -230 37 -75 40 -191 6 -264 -56 -122 -236 -224 -445
-254 -27 -3 -48 -9 -48 -13 0 -3 131 -132 291 -286 316 -305 312 -298 181
-275 -79 14 -170 49 -221 87 -50 37 -519 491 -532 515 -8 14 -4 24 15 43 23
23 33 25 108 25 228 1 402 78 459 203 37 84 19 160 -55 233 -100 98 -182 114
-583 114 l-293 0 0 -615 0 -615 -100 0 -100 0 0 681 0 680 453 -3 c429 -4 456
-5 531 -26z m1922 8 c43 -21 66 -48 76 -87 l6 -23 -324 0 -324 0 0 -615 0
-615 -100 0 -100 0 0 615 0 615 -235 0 c-276 0 -320 7 -376 59 -79 76 -122 71
648 71 672 0 688 0 729 -20z"/>
</g>
</svg>
